<svg width="512" height="512" viewBox="0 0 512 512" fill="none" xmlns="http://www.w3.org/2000/svg">
  <rect width="512" height="512" rx="128" fill="#3b82f6"/>
  <path d="M256 128C209.6 128 172.8 164.8 172.8 211.2V256H128C115.2 256 104.8 266.4 104.8 279.2V384C104.8 396.8 115.2 407.2 128 407.2H256C268.8 407.2 279.2 396.8 279.2 384V279.2C279.2 266.4 268.8 256 256 256H211.2V211.2C211.2 186.4 231.2 166.4 256 166.4C280.8 166.4 300.8 186.4 300.8 211.2H342.4C342.4 164.8 305.6 128 256 128Z" fill="white"/>
  <circle cx="256" cy="332.8" r="21.6" fill="#3b82f6"/>
</svg>
